<?xml version="1.0" encoding="utf-8"?>
<!-- Generator: Adobe Illustrator 25.2.1, SVG Export Plug-In . SVG Version: 6.00 Build 0)  -->
<svg version="1.1" id="Camada_1" xmlns="http://www.w3.org/2000/svg" xmlns:xlink="http://www.w3.org/1999/xlink" x="0px" y="0px"
	 viewBox="0 0 36.3 36.2" style="enable-background:new 0 0 36.3 36.2;" xml:space="preserve">
<style type="text/css">
	.st0{fill:#999999;}
</style>
<path class="st0" d="M31.7,36.2L30,30.4c-0.2-0.8-0.6-2-0.8-2.8v-0.1c-0.3-0.9-0.6-1.9-1-2.8L26,20.1c-0.3-0.8-0.5-1.7-0.4-2.5
	l1.4-6.7l0.2,5.2c0.1,1,0.2,2,0.6,2.9l3.6,10.1c0.4,0.9,1.3,1.5,2.3,1.5l1.4,0c0.7,0,1.3-0.5,1.3-1.3c0-0.2,0-0.4-0.1-0.6l-3.8-10
	c-0.3-0.9-0.5-1.8-0.6-2.8L31,5.1c-0.1-1-0.6-1.9-1.4-2.5l-3.5-2.4C25.9,0.1,25.6,0,25.4,0c-0.2,0-0.4,0.1-0.6,0.2
	c-0.2,0.3-0.3,0.6-0.3,0.9c0,1.8-0.6,3.4-1.8,4.8c-1.2,1.2-2.9,1.8-4.6,1.7c-1.8,0.1-3.6-0.5-4.9-1.8c-1.1-1.3-1.6-3-1.6-4.7
	c0-0.3,0-0.7-0.2-0.9C11.3,0.1,11.1,0,10.9,0c-0.3,0-0.5,0.1-0.8,0.3L6.7,2.6C5.9,3.2,5.4,4.1,5.3,5.1L4.5,16
	c-0.1,0.9-0.3,1.9-0.6,2.8l-3.8,10C-0.1,29.2,0,29.6,0.2,30c0.3,0.4,0.7,0.6,1.1,0.6l1.4,0c1,0,1.9-0.6,2.3-1.5L8.6,19
	c0.3-1,0.5-1.9,0.6-2.9l0.2-5.2l1.4,6.8c0.1,0.9,0,1.8-0.3,2.6l-2.2,4.7c-0.4,0.9-0.7,1.8-1,2.8v0.2c-0.2,0.8-0.6,2-0.8,2.8
	l-1.8,5.6H31.7z"/>
</svg>
