<svg id="Camada_1" data-name="Camada 1" xmlns="http://www.w3.org/2000/svg" viewBox="0 0 36.29 36.19"><defs><style>.cls-1{fill:#f2976d;}</style></defs><path class="cls-1" d="M32.27,36.62l-1.71-5.74c-.23-.77-.6-2-.82-2.81l0-.06a21.11,21.11,0,0,0-1-2.78l-2.2-4.69A5,5,0,0,1,26.17,18l1.38-6.72.16,5.23a11.67,11.67,0,0,0,.56,2.94l3.59,10.15a2.45,2.45,0,0,0,2.26,1.54l1.41-.05a1.3,1.3,0,0,0,1.23-1.84L33,19.2a11.75,11.75,0,0,1-.6-2.75L31.6,5.58a3.73,3.73,0,0,0-1.44-2.52L26.7.7a1.33,1.33,0,0,0-.76-.27.81.81,0,0,0-.59.24,1.23,1.23,0,0,0-.29.93,7.33,7.33,0,0,1-1.78,4.77,6.08,6.08,0,0,1-4.56,1.68,6.34,6.34,0,0,1-4.85-1.78,6.84,6.84,0,0,1-1.56-4.66,1.23,1.23,0,0,0-.25-.94.77.77,0,0,0-.58-.24,1.35,1.35,0,0,0-.75.27L7.28,3.06A3.69,3.69,0,0,0,5.84,5.58L5.08,16.45a11.75,11.75,0,0,1-.6,2.75l-3.8,10a1.38,1.38,0,0,0,.09,1.26,1.41,1.41,0,0,0,1.13.58l1.42.05a2.47,2.47,0,0,0,2.26-1.54L9.17,19.42a11.24,11.24,0,0,0,.55-2.94l.16-5.23L11.26,18a4.91,4.91,0,0,1-.3,2.57l-2.2,4.69a22.68,22.68,0,0,0-1,2.78l0,.17c-.22.77-.59,2-.82,2.81L5.17,36.62Z" transform="translate(-0.57 -0.43)"/></svg>