<svg width="37" height="56" viewBox="0 0 37 56" fill="none" xmlns="http://www.w3.org/2000/svg">
<path d="M36.8266 52.4481L30.2937 30.4586C30.0645 29.6872 29.6954 28.4247 29.4711 27.6442L29.4549 27.5879C29.2276 26.7971 28.7587 25.548 28.4094 24.8034L26.2113 20.1166C25.8969 19.4462 25.7569 18.267 25.9057 17.5416L27.2823 10.8284L27.4449 16.055C27.4709 16.89 27.7188 18.21 27.9977 18.9977L31.5921 29.1474C31.9045 30.0293 32.9046 30.7147 33.8477 30.6812L35.2661 30.6298C35.7504 30.6124 36.1609 30.402 36.3927 30.0529C36.6244 29.7037 36.6586 29.2437 36.4867 28.7907L32.6857 18.7759C32.4121 18.055 32.1361 16.7962 32.0829 16.0272L31.3313 5.15746C31.2688 4.25384 30.6344 3.14513 29.8867 2.63333L26.4345 0.270634C26.1725 0.0913528 25.9171 0.000489172 25.6749 0.000489172C25.4423 0.000489172 25.2366 0.0854828 25.0803 0.24642C24.8772 0.455419 24.7759 0.774603 24.7872 1.16973C24.788 1.19835 24.8478 4.05291 23.0097 5.94441C21.9253 7.06021 20.391 7.62594 18.4492 7.62594C16.3286 7.62594 14.6966 7.02609 13.5985 5.84315C11.8544 3.964 12.038 1.20789 12.0401 1.18062C12.0711 0.779006 11.984 0.455052 11.7884 0.243974C11.6406 0.0843821 11.4425 0 11.2156 0C10.9792 0 10.7263 0.0911082 10.464 0.270634L7.01192 2.63333C6.26435 3.14501 5.62977 4.25371 5.56728 5.15746L4.81566 16.0271C4.76234 16.7966 4.48633 18.0552 4.21288 18.7758L0.411775 28.7906C0.239831 29.2435 0.274196 29.7036 0.505941 30.0527C0.737808 30.4018 1.14834 30.6121 1.63238 30.6296L3.05086 30.681C3.99178 30.7144 4.99433 30.029 5.30643 29.1472L8.90073 18.9976C9.17968 18.2099 9.42769 16.8899 9.45362 16.0549L9.61615 10.8282L10.9929 17.5415C11.1418 18.2669 11.0017 19.446 10.6873 20.1164L8.4891 24.8033C8.13995 25.5478 7.67071 26.7968 7.44313 27.5876L7.39592 27.7514C7.17323 28.5253 6.80402 29.788 6.57301 30.566L0.072045 52.4481C-0.0681027 52.9197 -0.00181994 53.3867 0.253772 53.7294C0.50325 54.0636 0.897278 54.2478 1.36334 54.2478C2.08817 54.2478 3.25655 54.556 3.91498 54.9205L5.26509 55.6683C5.65105 55.8822 6.15954 55.9999 6.6969 55.9999C7.23425 55.9999 7.74274 55.8821 8.1287 55.6683L9.47869 54.9205C9.77134 54.7585 10.1852 54.6655 10.6143 54.6655C11.0434 54.6655 11.4574 54.7585 11.7499 54.9205L13.0999 55.6683C13.4859 55.8822 13.9944 55.9999 14.5317 55.9999C15.0691 55.9999 15.5776 55.8821 15.9636 55.6683L17.3135 54.9205C17.6062 54.7585 18.02 54.6655 18.4491 54.6655C18.8782 54.6655 19.2922 54.7585 19.5846 54.9205L20.9347 55.6683C21.3207 55.8822 21.8292 55.9999 22.3665 55.9999C22.9039 55.9999 23.4124 55.8821 23.7983 55.6683L25.1483 54.9205C25.441 54.7585 25.8548 54.6655 26.2839 54.6655C26.7131 54.6655 27.127 54.7585 27.4195 54.9205L28.7695 55.6683C29.1555 55.8822 29.664 55.9999 30.2013 55.9999C30.7387 55.9999 31.2472 55.8821 31.6333 55.6683L32.9831 54.9205C33.6417 54.5558 34.8101 54.2478 35.5349 54.2478C36.0011 54.2478 36.395 54.0637 36.6445 53.7294C36.9003 53.3867 36.9666 52.9197 36.8266 52.4481Z" fill="white"/>
</svg>
